# xmcd CD database file
#
# Track frame offsets:
#	150
#	24760
#	51975
#	73492
#	96528
#	128658
#	153121
#	182499
#
# Disc length: 2962 seconds
#
# Revision: 0
# Processed by: cddbd v1.5.2PL0 Copyright (c) Steve Scherf et al.
# Submitted via: CDex 1.77
#
DISCID=660b9008
DTITLE=Daniel Freedman - Imagine That
DYEAR=2013
DGENRE=Jazz
TTITLE0=Determined Soul
TTITLE1=Baby Aya
TTITLE2=Big in Yemen
TTITLE3=Codex
TTITLE4=Mindaho
TTITLE5=Love Takes Time
TTITLE6=Eastern Elegy
TTITLE7=The Sisters Dance
EXTD=YEAR: 2013
EXTT0=
EXTT1=
EXTT2=
EXTT3=
EXTT4=
EXTT5=
EXTT6=
EXTT7=
PLAYORDER=
